<?xml version="1.0"?>
<svg version="1.1" xmlns="http://www.w3.org/2000/svg" width="400px" height="200px" style="border: dashed 2px #aaa"><path fill="#121fcc" d="M84.3125,105.109375l0.046875,0l-0.046875-0.046875l0,0.046875q0,0.0234375,0.0234375,0.046875t0.0234375,0.046875q0,0.2109375-0.75,0.5859375q0.046875-0.046875,0.1875-0.046875q0.1640625,0,0.29296875,0.140625t0.12890625,0.28125q0,0.234375-0.1875,0.3046875q-0.4453125,0.328125-0.515625,0.65625q0.140625-0.140625,0.46875-0.140625q0.1875,0,0.1875,0.140625q0,0.09375-0.046875,0.140625q-0.0234375,0.0703125-0.31640625,0.26953125t-0.29296875,0.26953125q0.09375,0.28125,0.09375,0.375q0,0.3515625-0.29296875,0.5859375t-0.71484375,0.234375l-0.1640625,0q-0.046875,0-0.1171875-0.0234375t-0.1171875-0.0234375q-0.140625,0-0.46875,0.046875t-0.4921875,0.046875l-0.140625,0l-0.140625,0q-0.0703125,0-0.6328125,0.1875l-0.09375,0q-0.234375,0-0.234375-0.234375q0-0.046875,0.09375-0.140625q-0.0234375,0-0.0703125-0.0234375t-0.0703125-0.0234375q-0.09375,0-0.3046875,0.0703125t-0.28125,0.0703125q-0.1171875,0-0.29296875-0.046875t-0.26953125-0.046875l-0.28125,0.09375q-0.28125,0.140625-0.4453125,0.140625q-0.140625,0-0.1875-0.09375q-0.046875-0.046875-0.046875-0.140625t0.1640625-0.1875t0.1640625-0.140625l0-0.046875q-0.046875-0.046875-0.1875-0.4921875q-0.0234375-0.0234375-0.12890625-0.1171875t-0.10546875-0.1640625q0-0.046875,0.140625-0.1875q0.328125-0.2578125,0.328125-0.4921875q0-0.09375-0.046875-0.26953125t-0.046875-0.29296875q-0.09375,0.046875-0.1875,0.046875q-0.1875,0-0.1875-0.1875q0-0.3515625,0.28125-0.4921875q0-0.046875-0.09375-0.36328125t-0.09375-0.45703125q0-0.5390625-0.28125-1.0078125q-0.1875,0.09375-0.3515625,0.09375q-0.234375,0-0.234375-0.140625l0.09375-0.1875q-0.28125-0.046875-0.28125-0.1875q0-0.1171875,0.19921875-0.375t0.17578125-0.3046875q-0.140625,0.140625-0.375,0.140625t-0.234375-0.1875l0-0.046875q0-0.140625,0.17578125-0.3515625t0.15234375-0.28125q-0.0703125-0.1640625-0.3046875-0.375t-0.28125-0.28125q-0.1875-0.1875-0.328125-0.3984375q-0.046875-0.046875-0.140625-0.046875q-0.0703125,0-0.19921875,0.046875t-0.19921875,0.046875q-0.140625,0-0.1875-0.046875t-0.0703125-0.15234375t-0.03515625-0.1640625t-0.08203125-0.05859375q-0.140625,0-0.33984375-0.08203125t-0.29296875-0.10546875q-0.796875,0-1.5703125-0.234375q-0.046875,0.0234375-0.29296875,0.15234375t-0.3515625,0.24609375t-0.12890625,0.2578125q0.09375,0.28125,0.09375,0.5859375q0,0.234375-0.046875,0.328125q-0.046875,0.140625-0.046875,0.5859375q0,0.375-0.09375,0.5625q-0.046875,0.09375-0.046875,0.4453125q0,0.5859375,0.09375,1.0546875q0.09375,0.84375,0.09375,1.3359375q0,0.328125-0.0234375,0.9375t-0.0234375,0.890625q0.140625,0.84375,0.140625,0.9609375q0,0.046875-0.0234375,0.140625t-0.0234375,0.140625q0.140625,0.3515625,0.140625,0.7734375q0,0.1171875-0.0234375,0.36328125t-0.0234375,0.36328125q0,0.0703125,0.0234375,0.24609375t0.0234375,0.26953125q0,0.5390625-0.140625,0.9609375q0.046875,0.046875,0.046875,0.234375q0,0.0703125-0.0234375,0.26953125t-0.0234375,0.26953125q0,0.0234375-0.0234375,0.140625t-0.0234375,0.140625l0.046875,0.09375q0.046875,0,0.140625,0.140625l0.046875,0.1171875q0,0.09375-0.234375,0.328125l0,0.28125l0,0.6796875l0,0.28125q-0.046875,0.140625-0.046875,0.3984375q0,0.140625,0.0234375,0.45703125t0.0234375,0.48046875l0,0.2109375q0.09375-0.046875,0.28125-0.046875q0.5390625,0,0.5390625,0.328125q0,0.2109375-0.28125,0.421875q-0.046875,0.046875-0.1640625,0.12890625t-0.1875,0.12890625t-0.140625,0.140625t-0.09375,0.1875l0,0.234375q0,0.1875-0.046875,0.28125q0,0.046875-0.0234375,0.17578125t-0.0234375,0.17578125q0,0.09375,0.09375,0.09375q0.234375,0.0703125,0.234375,0.328125l0,0.09375q-0.0234375,0.1171875-0.1171875,0.29296875t-0.1171875,0.29296875q0.0234375,0.1171875,0.1171875,0.234375t0.1171875,0.1875q0.046875,0.046875,0.046875,0.2109375q0,0.1875-0.1875,0.46875l0,0.4921875l0,0.28125q0,0.375,0.09375,0.46875q0.0703125,0.1171875,0.12890625,0.43359375t0.15234375,0.4921875t0.3046875,0.17578125q0.140625,0,0.234375-0.046875t0.1875-0.046875q0.1171875,0,0.28125,0.17578125t0.3515625,0.17578125q0.0703125,0,0.9140625,0.140625l0.140625,0q0.09375,0,0.328125-0.0234375t0.3515625-0.0234375q0.1875,0,0.28125,0.046875q0.3984375-0.3046875,0.8671875-0.3046875q0.09375,0,0.328125,0.1171875q0.09375,0.0703125,0.31640625,0.12890625t0.33984375,0.17578125t0.1171875,0.3984375q0.09375,0.28125,0.09375,1.1484375q0.046875,0.1875,0.046875,0.5390625q0,0.5859375-0.1875,1.3359375q0.046875-0.046875,0.140625-0.046875q0.1640625,0,0.26953125,0.140625t0.10546875,0.3046875q0,0.234375-0.234375,0.234375l-0.09375,0l-0.140625,0q-0.046875,0-0.0703125,0.01171875t-0.03515625,0.03515625l-0.046875,0.09375t-0.08203125,0.140625q0,0.0234375-0.12890625,0.15234375t-0.12890625,0.15234375q0.0703125-0.0234375,0.1171875-0.0703125q-1.0546875,0.3984375-1.453125,0.3984375l-0.234375,0q-0.3046875,0-0.3984375-0.09375q-0.1875,0.09375-0.28125,0.09375q-0.0234375,0-0.09375-0.0234375t-0.09375-0.0234375q-0.09375,0.046875-0.1875,0.046875t-0.2578125-0.0703125t-0.234375-0.0703125q-0.046875,0.046875-0.09375,0.046875q-0.09375,0-0.24609375,0.046875t-0.26953125,0.046875l-0.09375,0q-0.046875,0-0.1640625-0.046875t-0.1875-0.046875q-0.09375,0.140625-0.375,0.234375q-0.234375,0-0.234375-0.28125l-0.2578125,0q-0.5625,0-0.703125,0.046875q-0.09375,0.046875-0.3046875,0.046875l-0.421875,0l-0.1875,0q-0.140625,0.09375-0.4453125,0.09375q-0.28125,0-0.75-0.09375q-0.0703125,0.0234375-0.29296875,0.0703125t-0.29296875,0.0703125l-0.140625,0q-0.09375,0-0.28125-0.09375q-0.09375,0.09375-0.3046875,0.09375q-0.09375,0-0.33984375,0.0234375t-0.36328125,0.0234375q-0.3984375,0-0.5390625-0.140625l-0.140625,0q-0.140625,0-0.3984375-0.046875t-0.375-0.046875q-0.140625,0-0.515625-0.09375q-0.0234375,0-0.1640625,0.0703125t-0.234375,0.0703125t-0.1875-0.09375q-0.2109375,0.140625-0.7265625,0.140625q-0.4921875,0-0.609375-0.1875q-0.375,0.28125-0.6796875,0.28125q-0.1171875,0-0.234375-0.046875t-0.140625-0.046875q-0.1171875,0-0.2109375,0.046875l-0.09375,0q-0.046875,0-0.15234375-0.046875t-0.17578125-0.046875q-0.046875,0.046875-0.234375,0.046875q-0.3515625,0-0.5390625-0.09375q-0.1875,0.09375-0.609375,0.09375q-0.3046875,0-0.4921875-0.046875q-0.09375,0.046875-0.28125,0.046875l-0.4921875,0l-0.234375,0q-0.5625,0.140625-0.8203125,0.140625q-0.7265625,0-0.9609375-0.421875q-0.234375-0.3984375-0.234375-1.453125q0-0.46875,0.046875-0.609375q-0.09375,0.046875-0.1875,0.046875t-0.09375-0.1171875t0.140625-0.3984375l0.140625-0.2578125q0-0.84375,0.1875-1.1015625q-0.09375-0.1875-0.09375-0.3046875q0-0.28125,0.29296875-0.46875t0.66796875-0.1875q0.3984375,0,0.6328125,0.234375q0.046875-0.0234375,0.3046875-0.2109375t0.421875-0.1640625q0.1875,0,0.1875,0.234375l0.09375,0q0.09375,0,0.140625,0.046875l0.140625,0q0.1171875,0,0.38671875-0.046875t0.38671875-0.046875l0.09375,0q0.140625,0.0234375,0.36328125-0.140625t0.31640625-0.1640625q0.1171875,0,0.1875,0.0703125q0.0234375-0.0234375,0.12890625-0.09375t0.15234375-0.0703125q0.3515625-0.4453125,0.6796875-0.609375q0-0.328125,0.140625-0.5390625q0.1875-0.2578125,0.1875-0.609375q0-0.1875-0.046875-0.5859375t-0.046875-0.5859375q0-0.234375,0.046875-0.375l0-0.46875l0-0.2109375l-0.1875-0.65625q0.0234375-0.1171875,0.08203125-0.1875t0.05859375-0.1640625l0-0.375q-0.140625-0.421875-0.140625-1.1953125q0-0.609375,0.140625-0.9609375q0-0.046875,0.0234375-0.1171875t0.0234375-0.1171875q0-0.1171875-0.046875-0.36328125t-0.046875-0.36328125l0-0.140625q-0.046875-0.09375-0.046875-0.3984375q0-0.421875,0.09375-0.796875l-0.09375,0.046875q-0.234375,0-0.234375-0.3984375q0-0.140625,0.046875-0.1875q0.046875-0.0703125,0.15234375-0.2109375t0.1640625-0.2578125t0.05859375-0.2109375q0-0.0703125-0.0234375-0.22265625t-0.0234375-0.19921875l0-0.234375q0-0.3046875-0.09375-0.3046875q-0.234375-0.0703125-0.234375-0.28125l0-0.046875q0-0.046875,0.1171875-0.15234375t0.1171875-0.12890625l0-0.3984375q-0.046875-0.09375-0.046875-0.5625q0-0.3046875,0.046875-0.3984375q-0.1875-0.375-0.1875-0.421875t0.09375-0.140625q0-0.046875,0.09375-0.09375l0.09375-0.046875q0.140625-0.3515625,0.140625-0.6796875q0-0.140625-0.0234375-0.421875t-0.0234375-0.3984375q-0.046875-0.234375-0.046875-0.7265625l0-0.1875l0-0.46875q0-0.0234375-0.10546875-0.10546875t-0.12890625-0.12890625l0-0.1171875q0-0.2109375,0.328125-0.421875q0-0.234375,0.046875-0.328125q-0.140625-0.140625-0.140625-0.5390625l0-0.09375q-0.046875-0.1171875-0.09375-0.375t-0.046875-0.3046875l0-0.28125q0-0.1875-0.046875-0.28125q-0.234375-0.0703125-0.234375-0.28125l0-0.046875q0.0234375-0.09375,0.1171875-0.19921875t0.1171875-0.19921875l0-0.515625q0-0.3515625,0.09375-0.8203125q-0.09375,0.046875-0.5390625,0.046875q-0.0703125,0-0.29296875,0.0234375t-0.31640625,0.0234375l-0.140625,0q-0.234375,0.046875-0.421875,0.140625t-0.38671875,0.24609375t-0.33984375,0.22265625q-1.0546875,0.5859375-1.640625,0.5859375q0.0703125,0.3515625-0.4453125,0.7265625q-0.375,0.1875-0.6328125,0.890625t-0.3046875,0.7734375q-0.0234375,0.140625-0.1640625,0.73828125t-0.140625,0.94921875l0,0.1875q0.09375-0.046875,0.1875-0.046875q0.1171875,0,0.1171875,0.09375t-0.09375,0.24609375t-0.1875,0.26953125l-0.0703125,0.1171875q0.0703125,0.328125,0.140625,0.421875q0.046875,0.046875,0.046875,0.1640625q0,0.09375-0.140625,0.234375q-0.09375,0.0703125-0.12890625,0.17578125t-0.03515625,0.26953125t-0.0234375,0.234375q-0.0234375,0.1171875-0.03515625,0.19921875t-0.046875,0.15234375t-0.05859375,0.09375t-0.10546875,0.09375t-0.12890625,0.1171875q-0.3515625,0.3515625-0.7734375,0.3515625q-0.140625,0-0.3984375-0.05859375t-0.375-0.05859375q-0.0703125-0.0234375-0.4453125-0.09375t-0.421875-0.09375q-0.046875,0-0.1640625,0.0234375t-0.1640625,0.0234375q-0.234375,0-0.234375-0.140625q-0.28125,0.140625-0.3515625,0.140625q-0.140625,0-0.1875-0.09375q-0.046875-0.046875-0.234375-0.046875l-0.28125,0q-0.1171875,0.0234375-0.375,0.140625t-0.3984375,0.140625q-0.4921875,0-0.4921875-0.375l0-0.09375q0.1171875-0.421875,0.2109375-0.6328125l0-0.140625q0-0.1875,0.046875-0.234375q-0.09375-0.140625-0.09375-0.9140625l0-0.6328125q-0.0703125-0.28125-0.0703125-0.65625q0-0.4921875-0.046875-0.6796875q-0.140625,0.09375-0.28125,0.09375t-0.140625-0.1875q0-0.3984375,0.328125-0.7265625l0-0.421875q0-0.4453125,0.09375-0.6328125q0.0234375-0.09375,0.046875-0.3046875t0.046875-0.3984375t0.0703125-0.3046875q0-0.09375-0.0234375-0.375t-0.0234375-0.3984375l0-0.1875l0-0.328125l0-0.5859375q0-0.7734375,0.140625-1.1015625q-0.2109375-1.0546875-0.2578125-1.5234375q-0.140625,0.140625-0.28125,0.140625q-0.1875,0-0.1875-0.234375q0-0.140625,0.140625-0.3515625q0.2578125-0.2578125,0.375-0.609375l0-0.3984375l0-0.046875l0-0.140625q0-0.28125,0.31640625-0.45703125t0.69140625-0.17578125q0.046875,0,0.15234375,0.0234375t0.15234375,0.0234375q0.1640625-0.0234375,0.9140625-0.10546875t1.1484375-0.08203125l0.375,0q0.84375,0.09375,1.2421875,0.09375q0.609375,0,1.171875-0.1875q0.046875-0.046875,0.1875-0.046875t0.41015625,0.09375t0.41015625,0.09375q0.2109375,0.0234375,0.5859375,0.09375t0.515625,0.09375l0.328125,0q0.2109375,0,0.28125,0.0703125q0.140625-0.0703125,0.3046875-0.0703125l0.09375,0q0.28125-0.09375,0.609375-0.09375q0.140625-0.140625,0.4921875-0.140625l0.09375,0q0.140625,0.046875,0.421875,0.046875l0.5390625,0l0.234375,0q0.1171875,0,0.5390625,0.140625q0.1171875,0,0.3515625,0.05859375t0.3515625,0.05859375q0.140625,0,0.3984375-0.1640625q0.1875-0.1875,0.5625-0.1875q0.1640625,0,0.1640625,0.09375q0,0.046875-0.0703125,0.1875q0.046875-0.046875,0.2109375-0.046875q0.0703125,0,0.234375,0.0234375t0.234375,0.0234375l0.140625,0q0.09375-0.046875,0.3046875-0.046875q0.2578125,0,0.609375,0.1171875q0.1171875-0.1171875,0.3515625-0.1171875l0.375,0l0.1875,0l0.1875,0l0.4453125,0q0.5390625,0,0.8671875-0.09375q0.1171875-0.0234375,0.3515625-0.1640625t0.3984375-0.1171875q0.3984375,0,0.8671875,0.234375l0.1875,0l0.3515625,0l0.1875,0q0.3046875,0,0.6796875,0.09375q0.1875-0.09375,0.515625-0.09375l0.140625,0q0.046875,0.046875,0.1875,0.046875q0.0703125,0,0.2109375-0.0703125t0.234375-0.0703125q0.0234375,0,0.0703125,0.0234375t0.0703125,0.0234375q0.09375,0.046875,0.28125,0.046875q0.09375,0,0.3046875-0.0234375t0.328125-0.0234375q0.1171875,0.0234375,0.1875,0.10546875t0.140625,0.08203125q0.09375,0,0.1875-0.046875q0.28125-0.1875,0.5390625-0.1875q0.1875,0,0.28125,0.09375l0.3046875,0l0.46875,0q0.3515625,0,0.5390625-0.046875q0.28125-0.09375,0.46875-0.09375q0.3046875,0,0.8671875,0.140625q0.140625-0.046875,0.421875-0.046875q0.1875,0,0.5625,0.046875t0.5390625,0.046875q0.1875-0.09375,0.3515625-0.09375q0.234375,0,0.515625,0.09375q0.28125-0.09375,0.4921875-0.09375q0.0703125,0,1.3359375,0.140625q0.5859375,0,0.5859375,1.171875q0,0.28125-0.046875,0.375l0,0.7734375l0,0.375q0.046875,0.140625,0.046875,0.7265625l0,0.421875q0,0.3515625-0.046875,0.4921875q-0.09375,0.234375-0.09375,0.9609375q0.09375-0.046875,0.234375-0.046875q0.1875,0,0.1875,0.1875q0,0.2578125-0.234375,0.421875q-0.1875,0.1875-0.1875,0.3515625l0,0.1875q0,0.140625-0.046875,0.28125l0.09375,0q0.234375,0,0.234375,0.1875l0,0.046875q-0.0703125,0.234375-0.28125,0.3046875l0,0.28125q0.140625,0.3515625,0.140625,0.8671875q0.046875,0.09375,0.046875,0.375q0,0.2109375-0.0703125,0.6796875t-0.0703125,0.65625l0.46875-0.234375q0.140625,0,0.1875,0.09375z M79.578125,107.6171875q0.4453125-0.2578125,1.96875-1.1484375q0.09375-0.046875,0.24609375-0.12890625t0.22265625-0.1171875t0.17578125-0.09375t0.140625-0.12890625t0.09375-0.15234375t0.05859375-0.19921875l0-0.28125q-0.0234375,0.0703125-0.19921875,0.15234375t-0.41015625,0.1640625t-0.28125,0.10546875q-0.2578125,0.1171875-0.71484375,0.3984375t-0.55078125,0.328125l-0.2578125,0.12890625t-0.36328125,0.1875t-0.28125,0.2109375t-0.10546875,0.22265625q0.046875,0.046875,0.046875,0.2109375l0,0.09375q0,0.046875,0.046875,0.046875l0.1640625,0z M82.6015625,104.0546875l-0.046875,0.046875l0.046875-0.046875q-0.2109375,0.421875-1.21875,1.3125q0.046875-0.0234375,0.2109375-0.1171875t0.3515625-0.1640625t0.3046875-0.0703125q0.1640625,0,0.234375,0.1875q0.1171875-0.703125,0.1171875-0.890625l0-0.2578125z M82.6015625,103.140625l0,0.046875l0-0.046875q0-0.0234375-0.78515625,0.515625t-0.99609375,0.703125q1.2890625-0.9609375,1.6171875-0.9609375q0.1171875,0,0.2109375,0.09375l0-0.09375q0-0.0234375-0.01171875-0.0234375t-0.01171875-0.01171875t-0.01171875-0.0703125t-0.01171875-0.15234375z M78.078125,102.4375l0.046875-0.046875l-0.046875,0.046875q0.046875-0.0234375,0.1875-0.12890625t0.1875-0.12890625q-0.0234375,0.0234375-0.1171875,0.05859375t-0.17578125,0.08203125t-0.08203125,0.1171875z M78.21875,101.3359375l0.3046875-0.2578125q-0.1171875,0-0.3046875,0.2578125q1.96875-1.171875,4.21875-2.2734375q0.2578125-0.140625,0.2578125-0.8203125q0-0.7265625-0.09375-1.1015625q-0.2109375,0.2109375-1.06640625,0.9609375t-1.23046875,1.1015625t-0.99609375,0.97265625t-1.08984375,1.16015625z M82.484375,100.703125l-0.046875,0l0.046875,0z M82.484375,102.2265625l0,0.0703125l0-0.0703125q0-0.046875-0.046875-0.09375q-0.234375,0.1875-0.71484375,0.5859375t-0.71484375,0.5859375l0.2578125-0.12890625t0.31640625-0.15234375t0.29296875-0.1640625t0.29296875-0.19921875t0.19921875-0.19921875t0.1171875-0.234375z M81.0546875,96.34375l0.046875,0.046875l-0.046875-0.046875q-0.140625,0.0234375-0.28125,0.03515625t-0.2109375,0.0234375t-0.17578125,0.05859375t-0.24609375,0.1640625q-0.3984375,0.3984375-1.1484375,1.0546875q-1.9453125,1.546875-2.6953125,2.296875q0.1171875,0.046875,0.1640625,0.1171875q0,0.0234375,0.0234375,0.0234375q0.0703125,0,0.2109375-0.09375l0.421875-0.28125q0.140625-0.09375,0.41015625-0.31640625t0.41015625-0.31640625q0.1640625-0.1171875,0.80859375-0.57421875t1.01953125-0.66796875q1.5234375-1.1484375,2.53125-1.5703125q-0.0703125-0.0703125-0.1875-0.0703125t-0.41015625,0.08203125t-0.41015625,0.08203125q-0.140625,0-0.234375-0.046875z M76.34375,96.390625l0.046875,0l-0.046875,0q-0.140625-0.046875-0.328125-0.046875q-0.140625,0-0.234375,0.09375q-0.0703125,0.0703125-0.22265625,0.1875t-0.22265625,0.1875q-0.1875,0.1171875-0.57421875,0.38671875t-0.57421875,0.38671875q-0.984375,0.6796875-2.7890625,1.78125q0.09375-0.046875,0.2578125-0.046875q0.1875,0,0.234375,0.046875q0.140625-0.140625,0.28125-0.2109375q0.0234375,0,0.0703125-0.0234375t0.0703125-0.0234375q0.046875,0,0.17578125,0.046875t0.17578125,0.046875l0.09375-0.046875q0.1875-0.09375,0.328125-0.09375q0.328125,0,0.4453125,0.1875q0.1875-0.046875,0.5625-0.328125q0.2109375-0.140625,3.890625-2.625l-0.140625,0q-0.0703125,0-0.26953125,0.0234375t-0.26953125,0.0234375q-0.1875,0-0.28125-0.046875l-0.09375,0q-0.09375,0-0.29296875,0.046875t-0.29296875,0.046875z M68.328125,115.140625l0.6328125-0.375q0-0.0234375-0.234375,0.1171875t-0.3984375,0.2578125q0.328125-0.1875,0.9375-0.55078125t0.9375-0.55078125q0.09375-0.046875,0.3046875-0.140625t0.29296875-0.15234375t0.1640625-0.19921875t0.05859375-0.328125q-0.3046875,0.375-0.76171875,0.69140625t-1.04296875,0.66796875t-0.890625,0.5625z M71.1171875,121.8671875q0.0234375,0.046875-0.24609375,0.2578125t-0.6796875,0.4921875t-0.796875,0.52734375t-0.75,0.48046875t-0.41015625,0.2578125q-1.3125,0.9140625-5.0390625,3.3515625q0.7734375-0.28125,1.546875-0.7265625t1.828125-1.1484375t1.4296875-0.9375q1.5-1.0078125,2.5546875-1.828125q0.046875-0.0234375,0.12890625-0.08203125t0.1171875-0.0703125t0.09375-0.05859375t0.08203125-0.0703125t0.05859375-0.0703125t0.046875-0.08203125t0.0234375-0.08203125t0.01171875-0.1171875l0-0.09375z M71.0234375,119.6640625l-0.5390625,0.28125q0,0.0234375,0.140625-0.03515625t0.26953125-0.140625t0.12890625-0.10546875q-0.9140625,0.515625-1.88671875,1.1484375t-2.1796875,1.453125t-1.83984375,1.2421875q1.6171875-0.9140625,3.75-2.3203125q0.0234375-0.0234375,0.69140625-0.3515625t1.0546875-0.62109375t0.41015625-0.55078125z M70.9765625,117.6015625l-0.140625,0.046875l0.140625-0.046875q-0.140625,0.09375-0.43359375,0.28125t-0.43359375,0.28125q0.046875-0.0234375,0.31640625-0.1171875t0.41015625-0.19921875t0.140625-0.24609375z M70.9296875,118.328125l-0.4453125,0.28125q0.4453125-0.234375,0.4453125-0.28125q-0.5390625,0.328125-5.1796875,3.1640625q-0.046875,0.0234375-1.0546875,0.75q-0.609375,0.3046875-0.7265625,0.5390625q-0.046875,0.1171875-0.2109375,0.328125t-0.1640625,0.3984375q0.046875,0.2578125-0.4453125,0.75q0.84375-0.5625,2.49609375-1.67578125t2.49609375-1.67578125q0.375-0.234375,1.125-0.71484375t1.125-0.71484375t0.48046875-0.33984375t0.10546875-0.33984375q0-0.0703125-0.0234375-0.22265625t-0.0234375-0.24609375z M64.15625,121.3046875q0.796875-0.6796875,2.35546875-2.00390625t2.35546875-1.98046875q-1.59375,1.03125-4.03125,2.53125q-0.046875,0.046875-0.22265625,0.15234375t-0.31640625,0.19921875t-0.140625,0.1875q0.046875,0.09375,0.046875,0.421875q0,0.3515625-0.046875,0.4921875z M64.15625,119.4296875l0,0.09375q4.21875-3.28125,6.4453125-5.1328125q-2.859375,1.59375-4.1484375,2.390625q-0.4921875,0.28125-1.34765625,0.80859375t-0.99609375,0.62109375q0,0.1875,0.0234375,0.59765625t0.0234375,0.62109375z M66.8515625,108.8125l-0.3984375,0.28125q0,0.0234375,0.1640625-0.08203125t0.31640625-0.234375t0.15234375-0.15234375q-0.046875,0.046875-0.234375,0.1875q-1.1484375,0.9140625-2.0625,1.5q-0.0703125,0.046875-0.24609375,0.15234375t-0.24609375,0.17578125t-0.15234375,0.17578125t-0.08203125,0.24609375q0,0.1640625,0.046875,0.2578125q2.1328125-1.875,6.1875-4.8515625q-1.125,0.609375-3.4453125,2.34375z M70.9765625,106.5625l-0.328125,0.234375q0.328125-0.1875,0.328125-0.234375q-2.90625,2.109375-4.171875,3.1171875q-0.2578125,0.2109375-0.90234375,0.71484375t-0.97265625,0.80859375q-0.0703125,0.046875-0.19921875,0.15234375t-0.19921875,0.17578125l-0.1640625,0.1640625t-0.12890625,0.19921875t-0.03515625,0.22265625q0.7734375-0.4453125,2.28515625-1.3359375t2.28515625-1.3359375q0.0703125-0.0234375,0.3984375-0.17578125t0.5859375-0.28125t0.5625-0.3046875t0.4921875-0.36328125t0.2109375-0.328125q-0.09375-0.375-0.09375-0.9140625q0-0.375,0.046875-0.515625z M64.390625,112.515625l0.3046875-0.140625q-0.1171875,0.046875-0.3046875,0.140625q-0.234375,0.1875-0.234375,0.515625l0,0.234375q1.265625-1.125,2.6484375-2.15625q-1.8046875,1.078125-2.4140625,1.40625z M64.0625,116.359375l0.234375-0.1640625l-0.234375,0.1640625q0.421875-0.3046875,1.40625-0.984375t1.7109375-1.20703125t1.359375-1.04296875q0.3046875-0.2109375,0.8671875-0.66796875t0.84375-0.66796875q0.0703125-0.0703125,0.328125-0.26953125t0.421875-0.375t0.1640625-0.31640625q-2.390625,1.78125-4.8046875,3.2578125q-1.21875,0.75-2.109375,1.1015625q-0.234375,0.046875-0.234375,0.6796875q0,0.1171875,0.0234375,0.28125t0.0234375,0.2109375z M71.1171875,111.6953125q-1.1015625,0.8671875-1.3359375,1.0546875q0.5625-0.28125,0.9609375-0.28125l0.09375,0q0.234375-0.09375,0.234375-0.4453125q0-0.234375,0.046875-0.328125z M69.59375,113.6640625l-0.3046875,0.1875q0.2109375-0.09375,0.3046875-0.1875q-0.328125,0.1875-0.94921875,0.57421875t-0.92578125,0.57421875q0.84375-0.421875,1.875-1.1484375z M67.90625,112.5625l0.28125-0.1875l-1.0078125,0.65625q0.1875-0.140625,0.7265625-0.46875q1.8046875-1.1953125,3.2578125-2.3203125l0-0.75q0-0.5390625-0.046875-0.7734375q-1.921875,1.1953125-4.8515625,3.3984375q-0.328125,0.234375-0.92578125,0.75t-0.78515625,0.65625q-0.140625,0.1171875-0.22265625,0.2109375t-0.12890625,0.1640625t-0.0703125,0.17578125t-0.03515625,0.1640625t-0.0234375,0.234375t-0.01171875,0.29296875q1.4765625-0.5625,3.84375-2.203125z M70.9296875,103.6328125l0-0.046875l0,0.046875q-0.046875-0.09375-0.046875-0.234375q-0.28125,0.1875-0.80859375,0.57421875t-0.78515625,0.57421875q0.796875-0.3984375,1.0546875-0.3984375l0.140625,0q0.3046875,0.0703125,0.3046875,0.3515625q0,0.140625-0.09375,0.328125q-0.234375,0.421875-0.6796875,0.87890625t-0.71484375,0.69140625t-0.9609375,0.76171875t-0.80859375,0.59765625q0.2109375-0.140625,0.75-0.5625t0.87890625-0.66796875t0.84375-0.4921875t0.92578125-0.29296875q0.09375-0.375,0.09375-0.6328125q0-0.2109375-0.046875-0.64453125t-0.046875-0.64453125l0-0.1875z M64.34375,101.8046875l0.2109375-0.09375q-0.0703125,0-0.2109375,0.09375q-0.328125,0.140625-0.328125,0.1875q0.3515625-0.1640625,0.97265625-0.52734375t0.85546875-0.48046875q-1.0078125,0.5390625-1.5,0.8203125z M74.421875,96.390625l-0.28125,0.140625q0-0.0234375,0.28125-0.140625q-0.6796875,0.28125-1.3359375,0.64453125t-1.39453125,0.83203125t-1.20703125,0.78515625t-1.3359375,0.92578125t-1.1953125,0.84375q-1.96875,1.265625-3.0703125,2.0625q-0.09375,0.046875-0.29296875,0.17578125t-0.28125,0.1875t-0.1640625,0.1875t-0.08203125,0.26953125q0,0.1875,0.046875,0.328125q1.78125-1.4765625,5.63671875-3.76171875t5.49609375-3.57421875q-0.5625,0.140625-0.609375,0.140625q-0.1640625,0-0.2109375-0.046875z M66.078125,103.1875l0.5390625-0.28125l-0.5390625,0.28125q0.46875-0.28125,1.453125-0.796875l1.4765625-0.7734375q0.046875-0.0234375,0.59765625-0.31640625t0.94921875-0.5625t0.375-0.41015625q-0.9375,0.46875-2.625,1.51171875t-2.2265625,1.34765625z M67.578125,103.3515625l-0.046875,0.046875l0.046875-0.046875q-0.2578125,0.1640625-1.25390625,0.80859375t-1.48828125,1.04296875q1.3359375-0.75,2.7421875-1.8515625z M70.6484375,101.171875q-0.2578125,0.1875-0.796875,0.5859375t-0.796875,0.5859375q0.984375-0.6796875,1.546875-0.9140625q0.3515625-0.234375,0.375-0.3046875l0-0.234375q-0.1875,0.1875-0.328125,0.28125z M69.78125,100.421875l0.28125-0.2109375q-0.140625,0.1171875-0.28125,0.2109375q0.1171875-0.0703125,0.38671875-0.2109375t0.48046875-0.28125t0.328125-0.28125q-0.234375,0.140625-0.65625,0.421875t-0.5390625,0.3515625z M71.1640625,99.5546875l0-0.046875l0.046875,0l-0.046875,0.046875l0.09375-0.09375z M64.296875,104.828125q0.140625-0.0703125,0.140625-0.09375q-0.140625,0.046875-0.140625,0.09375q0.6796875-0.3515625,1.6875-1.0546875q-0.046875,0.0234375-0.28125,0.12890625t-0.4453125,0.2109375t-0.4453125,0.234375t-0.375,0.2578125t-0.140625,0.22265625z M66.359375,105.015625l-0.515625,0.3984375q-0.046875,0,0.7734375-0.5390625q-0.0703125,0.046875-0.2578125,0.140625q-1.3828125,0.8203125-1.5703125,1.40625q0,0.046875,0.046875,0.046875q0.140625,0,0.43359375-0.12890625t0.29296875-0.17578125q1.03125-0.5625,3.2109375-2.34375q0.234375-0.1640625,0.69140625-0.50390625t0.69140625-0.50390625q0.046875-0.0234375,0.3046875-0.1640625t0.36328125-0.2578125t0.10546875-0.2578125q-0.421875,0.28125-2.0859375,1.27734375t-2.484375,1.60546875z M70.390625,96.4375q-0.140625,0-0.140625,0.09375q0.046875,0,0.140625-0.09375q-0.1640625,0.0234375-0.3046875,0.09375t-0.19921875,0.10546875t-0.234375,0.19921875t-0.22265625,0.2109375q0.421875-0.3046875,0.9609375-0.609375z M52.6484375,106.9375l0.046875-0.046875l-0.046875,0.046875q0-0.0234375,0.38671875-0.375t0.8203125-0.73828125t0.50390625-0.45703125q0.3515625-0.3046875,1.0078125-0.90234375t1.0078125-0.87890625q-1.4765625,0.84375-2.9296875,2.015625q-0.2578125,0.1875-0.421875,0.1875q-0.1875,0-0.1875-0.28125q0-0.328125,0.140625-0.5390625q0.2109375-0.3046875,0.52734375-0.6328125t0.50390625-0.4921875t0.65625-0.52734375t0.5625-0.45703125q0.3515625-0.2109375,0.9609375-0.65625t0.6796875-0.4921875q0.09375-0.0703125,0.4921875-0.3046875t0.69140625-0.4453125t0.33984375-0.3515625q-3.9375,2.390625-5.953125,3.5859375q0,0.09375,0.08203125,0.57421875t0.08203125,0.73828125l0,0.1875q0.09375,0.46875,0.09375,0.9140625q0,0.234375-0.046875,0.328125z M58.15625,96.71875l-0.234375,0.140625l0.28125-0.1875l-0.046875,0.046875q-0.7265625,0.46875-2.4375,1.4765625t-2.6015625,1.59375q1.96875-1.0546875,5.71875-3.4453125l-0.046875,0q-0.0703125,0-0.6328125,0.375z M56.28125,98.453125l-0.8671875,0.515625l0.8671875-0.515625q-1.6171875,1.0078125-3.0703125,1.7578125l-0.2109375,0.10546875t-0.1875,0.1171875t-0.08203125,0.1171875t-0.08203125,0.19921875q0,0.1640625,0.0234375,0.515625t0.0234375,0.4921875q1.5-1.3359375,4.40625-3.796875q-0.328125,0.1640625-0.8203125,0.4921875z M52.4375,103.7265625l0.1640625-0.09375q-0.1640625,0.046875-0.1640625,0.09375q0.09375-0.0703125,0.69140625-0.4453125t0.94921875-0.5625q-0.046875,0.0234375-0.3046875,0.12890625t-0.41015625,0.17578125t-0.375,0.1875t-0.36328125,0.24609375t-0.1875,0.26953125z M52.6953125,98.59375q0.2109375-0.375,0.66796875-1.08984375t0.66796875-1.06640625q-0.1875,0.046875-0.85546875,0.421875t-0.69140625,0.4921875q0.2109375,0.6328125,0.2109375,1.1015625l0,0.140625z M59.5625,99.8828125q0.09375,0,0.140625-0.09375q-0.0234375,0.0234375-0.0703125,0.046875t-0.0703125,0.046875z M64.8359375,97.140625l-0.4921875,0.3046875q0.3984375-0.2578125,0.4921875-0.3046875q-2.1328125,1.3125-4.21875,2.6015625q2.1328125-1.2421875,4.21875-2.6015625z M64.6015625,98.6875q0,0.0234375,0.0703125-0.0234375t0.140625-0.1171875l0.0703125-0.046875q-0.09375,0.046875-0.28125,0.1875q0,0.0234375,0.10546875-0.03515625t0.22265625-0.140625t0.140625-0.10546875q0.7265625-0.3984375,1.2421875-0.7265625q0.3984375-0.1875,1.11328125-0.609375t0.85546875-0.4921875q-0.046875,0.046875-0.1875,0.046875l-0.1875,0q-0.09375,0-0.1875,0.046875q-0.1640625,0.1171875-0.50390625,0.33984375t-0.50390625,0.33984375q-1.1015625,0.6328125-2.109375,1.3359375z M63.921875,96.484375q-0.1640625-0.0234375-0.4453125,0.15234375t-0.609375,0.45703125t-0.4453125,0.3515625q-0.3046875,0.2109375-0.9140625,0.64453125t-0.9375,0.64453125q2.8828125-1.6875,3.7734375-2.15625q-0.0703125,0-0.2109375-0.046875t-0.2109375-0.046875z M62.9609375,96.296875l-0.421875,0.1875l0.421875-0.1875q-0.375,0.1640625-0.7265625,0.33984375t-0.76171875,0.3984375t-0.69140625,0.375t-0.75,0.4453125t-0.66796875,0.421875t-0.7265625,0.48046875t-0.65625,0.43359375t-0.7265625,0.48046875l-0.66796875,0.4453125q3.796875-2.1796875,6.46875-3.8203125l-0.09375,0z M56.375,104.2421875l0,0.0703125l0-0.0703125q-0.8203125,0.6796875-0.9609375,0.7734375q-0.2109375,0.1875-0.64453125,0.57421875t-0.64453125,0.57421875q-0.0234375,0.0234375-0.46875,0.3984375t-0.71484375,0.69140625t-0.24609375,0.50390625q0.4921875,0.046875,0.97265625-0.15234375t1.16015625-0.65625t0.890625-0.57421875q0.375-0.2109375,0.375-0.4921875q0-0.3515625,0.09375-0.6328125l0-0.140625q0-0.5859375,0.1875-0.8671875z M57.2421875,101.9921875q0,0.046875-0.9609375,0.6796875q-0.6328125,0.4453125-1.0078125,0.7734375q-1.0078125,0.7265625-1.6171875,1.4296875q1.59375-1.2421875,2.625-1.734375q0.0703125-0.046875,0.17578125-0.08203125t0.17578125-0.0703125t0.140625-0.09375t0.09375-0.12890625l0-0.046875q0-0.4453125,0.375-0.7265625z M64.15625,100.0703125l0.046875-0.046875l-0.046875,0.046875l0,0.2578125q3.5390625-2.2734375,5.1796875-3.796875q-0.4921875,0.28125-1.5,0.84375t-1.5234375,0.8671875q-0.328125,0.1640625-0.94921875,0.5390625t-0.92578125,0.5390625q-0.046875,0.046875-0.1875,0.12890625t-0.1875,0.10546875q0.09375,0.328125,0.09375,0.46875l0,0.046875z M60.3125,96.53125l-0.046875,0l0.046875,0q-0.09375,0.046875-0.234375,0.046875q-0.0703125,0-0.1875-0.046875t-0.1875-0.046875q-0.1640625,0-0.2578125,0.09375q-0.1640625,0.140625-0.50390625,0.41015625t-0.50390625,0.41015625q-1.03125,0.9609375-1.8046875,1.5234375q-0.2109375,0.1640625-1.46484375,1.25390625t-1.91015625,1.67578125q5.625-3.9375,8.4140625-5.4609375q-0.0234375,0-0.2578125,0.0703125t-0.28125,0.0703125l-0.28125,0l-0.5390625,0z M55.1328125,96.296875q-0.046875,0-0.046875,0.046875q0.046875,0,0.046875-0.046875q-0.0234375,0-0.08203125,0.0234375t-0.10546875,0.0234375l-0.1875,0q-0.140625,0-0.234375,0.140625q-0.09375,0.1640625-0.29296875,0.48046875t-0.29296875,0.48046875q-0.1640625,0.2578125-0.48046875,0.78515625t-0.48046875,0.78515625q1.171875-0.5625,4.5703125-2.671875q-0.1171875-0.0234375-0.3984375,0.05859375t-0.375,0.08203125q-0.140625,0-0.1875-0.046875q-0.09375-0.046875-0.3515625-0.046875q-0.09375,0-0.29296875,0.0234375t-0.31640625,0.0234375q-0.28125,0-0.4921875-0.140625z M64.015625,101.4296875q0-0.0234375,0.421875-0.24609375t0.90234375-0.46875t0.55078125-0.29296875q1.8046875-0.984375,2.6484375-1.5q0.140625-0.0703125,0.75-0.43359375t0.85546875-0.515625t0.71484375-0.46875t0.8203125-0.5859375t0.6796875-0.57421875q-0.1171875-0.0234375-0.28125,0.01171875t-0.234375,0.03515625q-0.1875,0-0.28125-0.09375q-0.375,0.0703125-1.171875,0.65625q-1.171875,0.7734375-2.765625,1.875q-1.21875,0.890625-2.4609375,1.6875q-0.09375,0.0703125-0.31640625,0.19921875t-0.33984375,0.2109375t-0.2578125,0.22265625t-0.234375,0.28125z M64.296875,107.5703125l0-0.046875l0,0.046875q0-0.046875,1.0078125-0.7265625q-0.28125,0.09375-0.375,0.09375q-0.5390625,0-0.5390625-0.46875q0-0.328125,0.2578125-0.5859375q-0.0703125,0.0234375-0.140625,0.03515625t-0.10546875,0.01171875l-0.0703125,0t-0.05859375,0.01171875t-0.046875,0.03515625t-0.03515625,0.0703125t-0.03515625,0.1171875q0,0.046875,0.0234375,0.234375t0.0234375,0.2578125q0.09375,0.375,0.09375,0.7265625l0,0.1875z M64.015625,109.7734375q0-0.140625,2.6015625-1.875q1.1484375-0.8671875,2.25-1.828125q0.09375-0.09375,0.36328125-0.31640625t0.43359375-0.36328125t0.3515625-0.36328125t0.28125-0.43359375q-0.328125,0.0703125-1.5703125,0.8203125q-0.8671875,0.5390625-2.6015625,1.7109375q-1.59375,0.984375-1.96875,1.5q-0.046875,0.140625-0.0703125,0.33984375t-0.03515625,0.4453125t-0.03515625,0.36328125z M64.0625,117.4609375l0,0.140625q0.375-0.2578125,1.078125-0.7734375t1.078125-0.7734375q-0.2578125,0.1171875-0.90234375,0.43359375t-1.01953125,0.48046875q-0.234375,0.1171875-0.234375,0.28125l0,0.2109375z M61.4140625,124.375q-0.1875,0.2578125-0.57421875,0.46875t-0.52734375,0.375q-0.8203125,0.84375-1.7109375,1.640625q0.703125-0.2109375,1.37109375-0.57421875t1.6640625-1.01953125t1.23046875-0.796875q-0.046875,0.046875-0.1875,0.046875q-0.1171875,0-0.31640625-0.10546875t-0.31640625-0.08203125q-0.09375,0.09375-0.328125,0.09375q-0.2109375,0-0.3046875-0.046875z M60.3125,127.234375l0.09375-0.046875l-0.09375,0.046875q0.4921875-0.2578125,2.0625-1.3359375q-0.4453125,0.234375-1.2890625,0.75t-1.2890625,0.75q0.09375,0,0.2578125-0.08203125t0.2578125-0.08203125z M58.203125,126.578125q0.2109375-0.1875,0.62109375-0.57421875t0.62109375-0.57421875q-0.65625,0.3984375-1.1484375,0.65625q-0.09375,0.046875-0.09375,0.2578125l0,0.1875l0,0.046875z M58.6015625,127.3515625l0.046875,0l-0.09375,0l0.046875,0l0.1875,0q0.2109375,0,0.515625-0.3046875l-1.0546875,0.3515625l0.046875,0q0.046875,0,0.15234375-0.0234375t0.15234375-0.0234375z M62.140625,127.4453125q0.0703125,0,0.22265625-0.1171875t0.3515625-0.29296875t0.24609375-0.22265625q0.9140625-0.5390625,1.3828125-0.9140625q0.4921875-0.3046875,1.453125-0.9140625t1.4296875-0.9140625q0.1875-0.140625,1.32421875-0.92578125t1.69921875-1.23046875q0.8203125-0.609375,0.8203125-0.7265625l0-0.703125q-0.1875,0.046875-0.46875,0.234375q0.140625,0.0703125,0.140625,0.140625q0,0.2109375-0.515625,0.52734375t-0.75,0.38671875q-0.421875,0.234375-1.25390625,0.71484375t-1.23046875,0.71484375q-1.125,0.65625-3.08203125,2.12109375t-2.82421875,2.02734375q0.28125,0.09375,0.5390625,0.09375l0.375,0l0.140625,0z M64.9296875,127.234375q0.046875,0,0.1640625-0.08203125t0.1171875-0.10546875q-0.046875,0.046875-0.28125,0.1875q0.2109375,0.0703125,0.375,0.0703125q0.375,0,0.8203125-0.22265625t0.73828125-0.4453125t0.7734375-0.64453125t0.59765625-0.515625q0.28125-0.1875,2.25-1.6875q0.0234375-0.0234375,0.3046875-0.19921875t0.45703125-0.328125t0.15234375-0.24609375q-0.46875,0.1875-1.265625,0.83203125t-1.078125,0.80859375q-1.4296875,0.984375-4.125,2.578125z M68.5390625,127.4921875q0.0703125-0.0234375,0.1640625-0.09375t0.17578125-0.1171875t0.17578125-0.046875l0.234375,0.1171875q0.1171875-0.1171875,0.36328125-0.38671875t0.36328125-0.38671875q0.375-0.375,1.078125-1.1484375t1.078125-1.171875q-0.140625-0.0234375-0.3515625,0.03515625t-0.328125,0.12890625t-0.375,0.234375t-0.28125,0.1875q-0.7734375,0.421875-1.359375,0.8203125q-2.1796875,1.3359375-2.8125,1.734375q0.046875,0.0234375,0.796875,0.140625l0.1640625,0l0.375-0.09375l0.09375,0q0.046875,0,0.140625,0.046875t0.140625,0.046875q0.0234375,0,0.08203125-0.0234375t0.08203125-0.0234375z M73.0390625,127.234375l-0.046875,0l0.046875,0l0.234375,0q0.140625,0,0.3046875-0.28125q0.0234375-0.0234375,0.19921875-0.24609375t0.26953125-0.36328125q1.03125-1.3359375,1.0546875-1.359375q-0.65625,0.421875-2.02734375,1.21875t-2.05078125,1.1953125q0.0703125-0.0234375,0.36328125-0.09375t0.45703125-0.0703125l0.140625,0q0.09375,0,0.19921875,0.03515625t0.17578125,0.03515625l0.1640625,0q0.0703125-0.0703125,0.375-0.0703125l0.140625,0z M76.5546875,126.765625l0.046875,0l0-0.046875l-0.046875,0.046875l0.046875,0.09375q0,0.0703125-0.05859375,0.19921875t-0.05859375,0.17578125q0.0703125-0.0234375,0.12890625-0.05859375t0.08203125-0.10546875t0.03515625-0.1171875t0.03515625-0.1640625t0.0234375-0.1640625q-0.046875,0.0234375-0.1171875,0.0703125t-0.1171875,0.0703125z M74.1875,128.546875l0.046875,0l-0.046875,0l-0.140625,0.09375l0.328125-0.1875q-0.046875,0-0.1875,0.09375z M76.6015625,124.75l0.046875,0l-0.046875,0q-0.703125-0.0703125-1.21875,0.6328125q-0.1171875,0.140625-0.65625,0.85546875t-0.8203125,1.11328125q0.1875,0.046875,0.421875-0.0703125t0.515625-0.31640625t0.3984375-0.24609375q0.6328125-0.46875,1.1953125-0.7265625q0.09375-0.046875,0.2109375-0.09375t0.140625-0.08203125t0.05859375-0.10546875t0.03515625-0.234375q-0.046875-0.1875-0.046875-0.7265625l-0.234375,0z M73.8125,124.5625l-0.09375,0q-0.5859375,0-0.8671875-0.1875q-0.3046875,0.0703125-0.9609375,0.84375q-0.046875,0.046875-0.5859375,0.609375t-0.97265625,1.0546875t-0.36328125,0.5625q0.796875-0.3984375,4.6640625-2.6953125q-0.09375-0.0703125-0.234375-0.10546875t-0.328125-0.046875t-0.2578125-0.03515625z M69.640625,124.984375q0.28125-0.140625,0.7734375-0.43359375t0.75-0.43359375q0.0703125-0.046875,0.12890625-0.08203125t0.09375-0.05859375t0.08203125-0.046875t0.05859375-0.03515625t0.0234375-0.046875t0.01171875-0.05859375l0-0.1875q-0.328125,0.234375-0.97265625,0.703125t-0.94921875,0.6796875z M72.078125,117.015625l0.046875-0.046875q-0.046875,0-0.046875,0.046875q0.0234375-0.0234375,0.09375-0.0703125t0.09375-0.0703125q-0.1875,0-0.1875,0.140625z M70.6953125,117.203125l-0.3046875,0.2109375q0.0703125-0.0703125,0.3046875-0.2109375q0.375-0.2578125,0.375-1.2421875q0-0.3046875-0.0234375-0.75t-0.0234375-0.5859375q-3.3046875,2.6484375-4.7109375,3.75q1.078125-0.703125,2.7890625-1.734375q0.75-0.5390625,1.1953125-0.6328125l0.09375,0q0.2578125,0,0.2578125,0.234375q0,0.1640625-0.09375,0.2578125q-0.140625,0.1171875-0.43359375,0.3515625t-0.43359375,0.3515625q-3.5390625,3.0703125-4.8046875,4.1015625q1.125-0.6328125,3.05859375-2.109375t2.75390625-1.9921875z M75.59375,99.7421875l0.046875,0l-0.046875,0q0.234375,0.046875,0.62109375-0.24609375t0.80859375-0.7265625t0.5390625-0.52734375q1.3828125-1.125,2.203125-1.8984375q-0.09375-0.046875-0.3515625-0.046875t-0.55078125,0.10546875t-0.421875,0.1640625t-0.5390625,0.328125t-0.45703125,0.29296875q-1.0546875,0.6796875-3.0703125,2.1328125q0.234375-0.0234375,0.6328125,0.1875t0.5859375,0.234375z M76.8359375,100.515625q0.4453125,0.375,0.7734375,0.8671875q1.359375-1.7578125,4.6875-4.5703125q-0.28125,0.1171875-1.640625,1.04296875t-2.578125,1.79296875z M78.6640625,103.3984375q-0.140625,0-0.140625,0.1875q0,0.1640625,0.1640625,0.515625t0.1640625,0.3984375q0.3046875-0.234375,0.87890625-0.7265625t0.85546875-0.7265625q-1.078125,0.7265625-1.453125,0.8203125l-0.140625,0q-0.421875,0-0.421875-0.234375q0-0.140625,0.09375-0.234375z M78.9453125,105.109375l0.09375-0.046875l-0.09375,0.046875q0.09375-0.0703125,0.29296875-0.2109375t0.29296875-0.2109375q-0.0234375,0.0234375-0.19921875,0.10546875t-0.28125,0.15234375t-0.10546875,0.1640625z M79.2265625,106.421875l0,0.09375q1.921875-1.453125,2.6953125-2.3203125q-0.375,0.2109375-1.08984375,0.6796875t-1.06640625,0.6796875q-0.0703125,0.046875-0.19921875,0.1171875t-0.2109375,0.10546875t-0.140625,0.1171875t-0.08203125,0.17578125q0.0234375,0.046875,0.046875,0.17578125t0.046875,0.17578125z"/><path fill="#" d=""/></svg>
