<svg xmlns="http://www.w3.org/2000/svg"  viewBox="0 0 100 100" width="200px" height="200px"><path d="M77,95.5c-11.304,0-20.5-9.196-20.5-20.5c0-1.653,0.195-3.278,0.583-4.86L49.944,63h-5.646 C40.59,68.862,34.116,72.5,27,72.5C15.696,72.5,6.5,63.304,6.5,52S15.696,31.5,27,31.5c7.116,0,13.59,3.638,17.299,9.5h5.646 l7.139-7.14C56.695,32.278,56.5,30.653,56.5,29c0-11.304,9.196-20.5,20.5-20.5S97.5,17.696,97.5,29S88.304,49.5,77,49.5 c-1.363,0-2.715-0.135-4.041-0.403L70.056,52l2.903,2.903C74.285,54.635,75.637,54.5,77,54.5c11.304,0,20.5,9.196,20.5,20.5 S88.304,95.5,77,95.5z" opacity=".35"/><path fill="#f2f2f2" d="M75,93.5c-11.304,0-20.5-9.196-20.5-20.5c0-1.653,0.195-3.278,0.583-4.86L47.944,61h-5.646 C38.59,66.862,32.116,70.5,25,70.5C13.696,70.5,4.5,61.304,4.5,50S13.696,29.5,25,29.5c7.116,0,13.59,3.638,17.299,9.5h5.646 l7.139-7.14C54.695,30.278,54.5,28.653,54.5,27c0-11.304,9.196-20.5,20.5-20.5S95.5,15.696,95.5,27S86.304,47.5,75,47.5 c-1.363,0-2.715-0.135-4.041-0.403L68.056,50l2.903,2.903C72.285,52.635,73.637,52.5,75,52.5c11.304,0,20.5,9.196,20.5,20.5 S86.304,93.5,75,93.5z"/><rect width="24.096" height="7.489" x="33.904" y="46.255" fill="#707cc0"/><rect width="24.096" height="7.489" x="48.569" y="37.83" fill="#707cc0" transform="rotate(-42.791 60.62 41.577)"/><rect width="7.489" height="24.096" x="55.851" y="45.14" fill="#707cc0" transform="rotate(-42.791 59.6 57.19)"/><circle cx="24.753" cy="49.875" r="12.753" fill="#70bfff"/><circle cx="75.226" cy="27.029" r="12.753" fill="#70bfff"/><circle cx="75.098" cy="73.194" r="12.753" fill="#70bfff"/><path fill="#40396e" d="M75,14.5c7.361,0,13.236,6.362,12.425,13.888c-0.602,5.586-5.014,10.17-10.574,10.978 c-2.656,0.386-5.172-0.076-7.34-1.141c-0.393-0.193-0.861-0.133-1.17,0.177L57.449,49.293c-0.391,0.391-0.391,1.024,0,1.414 l10.891,10.892c0.309,0.309,0.778,0.37,1.17,0.177c2.168-1.065,4.685-1.527,7.341-1.141c5.493,0.798,9.88,5.282,10.552,10.792 c0.993,8.141-5.847,14.977-13.989,13.976c-5.624-0.691-10.15-5.251-10.823-10.877c-0.333-2.785,0.262-5.407,1.502-7.618 c0.224-0.4,0.175-0.896-0.149-1.22L51.551,53.293C51.363,53.105,51.109,53,50.844,53l-12.967,0c-0.447,0-0.825,0.301-0.958,0.727 c-1.714,5.489-7.097,9.357-13.286,8.7c-5.746-0.61-10.415-5.253-11.053-10.995C11.742,43.887,17.625,37.5,25,37.5 c5.603,0,10.332,3.691,11.919,8.771C37.052,46.698,37.431,47,37.879,47h12.965c0.265,0,0.52-0.105,0.707-0.293l12.395-12.395 c0.324-0.324,0.373-0.819,0.149-1.218C63.083,31.291,62.5,29.215,62.5,27C62.5,20.096,68.096,14.5,75,14.5 M75,11.5 c-8.547,0-15.5,6.953-15.5,15.5c0,2.149,0.446,4.259,1.304,6.211L50.015,44H39.283c-2.378-5.695-7.954-9.5-14.283-9.5 c-8.547,0-15.5,6.953-15.5,15.5S16.453,65.5,25,65.5c6.328,0,11.904-3.805,14.283-9.5h10.732l10.789,10.789 C59.946,68.741,59.5,70.851,59.5,73c0,8.547,6.953,15.5,15.5,15.5S90.5,81.547,90.5,73S83.547,57.5,75,57.5 c-1.881,0-3.748,0.347-5.501,1.014L60.985,50l8.514-8.514C71.252,42.153,73.119,42.5,75,42.5c8.547,0,15.5-6.953,15.5-15.5 S83.547,11.5,75,11.5L75,11.5z"/></svg>